<?xml version="1.0" encoding="UTF-8"?>
<svg xmlns="http://www.w3.org/2000/svg" xmlns:xlink="http://www.w3.org/1999/xlink"
     width="210mm" height="297mm" viewBox="0 0 210 297">
  <defs>
    <pattern id="pinC" width="4" height="4" patternUnits="userSpaceOnUse">
      <line x1="0" y1="0" x2="0" y2="4" stroke="#111" stroke-width="0.18"/>
    </pattern>
    <filter id="grayscale"><feColorMatrix type="matrix" values="0.33 0.33 0.33 0 0  0.33 0.33 0.33 0 0  0.33 0.33 0.33 0 0  0 0 0 1 0"/></filter>
  </defs>

  <!-- Header -->
  <text x="105" y="20" text-anchor="middle" font-family="serif" font-size="6" fill="#111" font-weight="bold">
    大正浪漫 人狼 · 紙キューブ [Set C · 櫻 線畫]
  </text>
  <text x="105" y="29" text-anchor="middle" font-family="sans-serif" font-size="3.3" fill="#555">
    실선 = 자르기 · 점선 = 접기 · 돌출부(탭) = 풀칠면 · 인쇄 배율 100%
  </text>
  <text x="105" y="35" text-anchor="middle" font-family="sans-serif" font-size="3.0" fill="#888">
    잉크 절약형 — 흰 바탕 검정 선화 + 포인트 朱色 · 앞면은 &lt;image href&gt; 수정으로 역할 교체
  </text>

  <!-- Glue tabs: 흰색 채움 (잉크 0, 시각적으로 불투명 흰색) -->
  <g fill="#ffffff" stroke="none">
    <polygon points="58,73.5 65,66.5 101,66.5 108,73.5"/>
    <polygon points="58,73.5 51,80.5 51,116.5 58,123.5"/>
    <polygon points="108,73.5 115,80.5 115,116.5 108,123.5"/>
    <polygon points="8,123.5 1,130.5 1,166.5 8,173.5"/>
    <polygon points="58,173.5 51,180.5 51,216.5 58,223.5"/>
    <polygon points="108,173.5 115,180.5 115,216.5 108,223.5"/>
    <polygon points="58,223.5 65,230.5 101,230.5 108,223.5"/>
  </g>

  <!-- ========== TOP (윗면): Deco sunburst + sakura (line) ========== -->
  <g transform="translate(58,73.5) scale(0.5)">
    <rect width="100" height="100" fill="#ffffff"/>
    <rect x="4" y="4" width="92" height="92" fill="none" stroke="#111" stroke-width="0.5"/>
    <g transform="translate(50,50)" stroke="#111" fill="none">
      <g stroke-width="0.7">
        <line x1="0" y1="-40" x2="0" y2="-16"/>
        <line x1="0" y1="-40" x2="0" y2="-16" transform="rotate(30)"/>
        <line x1="0" y1="-40" x2="0" y2="-16" transform="rotate(60)"/>
        <line x1="0" y1="-40" x2="0" y2="-16" transform="rotate(90)"/>
        <line x1="0" y1="-40" x2="0" y2="-16" transform="rotate(120)"/>
        <line x1="0" y1="-40" x2="0" y2="-16" transform="rotate(150)"/>
        <line x1="0" y1="-40" x2="0" y2="-16" transform="rotate(180)"/>
        <line x1="0" y1="-40" x2="0" y2="-16" transform="rotate(210)"/>
        <line x1="0" y1="-40" x2="0" y2="-16" transform="rotate(240)"/>
        <line x1="0" y1="-40" x2="0" y2="-16" transform="rotate(270)"/>
        <line x1="0" y1="-40" x2="0" y2="-16" transform="rotate(300)"/>
        <line x1="0" y1="-40" x2="0" y2="-16" transform="rotate(330)"/>
      </g>
      <g stroke-width="0.35">
        <line x1="0" y1="-36" x2="0" y2="-20" transform="rotate(15)"/>
        <line x1="0" y1="-36" x2="0" y2="-20" transform="rotate(45)"/>
        <line x1="0" y1="-36" x2="0" y2="-20" transform="rotate(75)"/>
        <line x1="0" y1="-36" x2="0" y2="-20" transform="rotate(105)"/>
        <line x1="0" y1="-36" x2="0" y2="-20" transform="rotate(135)"/>
        <line x1="0" y1="-36" x2="0" y2="-20" transform="rotate(165)"/>
        <line x1="0" y1="-36" x2="0" y2="-20" transform="rotate(195)"/>
        <line x1="0" y1="-36" x2="0" y2="-20" transform="rotate(225)"/>
        <line x1="0" y1="-36" x2="0" y2="-20" transform="rotate(255)"/>
        <line x1="0" y1="-36" x2="0" y2="-20" transform="rotate(285)"/>
        <line x1="0" y1="-36" x2="0" y2="-20" transform="rotate(315)"/>
        <line x1="0" y1="-36" x2="0" y2="-20" transform="rotate(345)"/>
      </g>
      <circle r="14" stroke-width="0.45"/>
    </g>
    <g transform="translate(50,50)" fill="none" stroke="#111" stroke-width="0.45">
      <path d="M0,-11 C3.5,-9 3.5,-3 0,-1 C-3.5,-3 -3.5,-9 0,-11 Z"/>
      <path d="M0,-11 C3.5,-9 3.5,-3 0,-1 C-3.5,-3 -3.5,-9 0,-11 Z" transform="rotate(72)"/>
      <path d="M0,-11 C3.5,-9 3.5,-3 0,-1 C-3.5,-3 -3.5,-9 0,-11 Z" transform="rotate(144)"/>
      <path d="M0,-11 C3.5,-9 3.5,-3 0,-1 C-3.5,-3 -3.5,-9 0,-11 Z" transform="rotate(216)"/>
      <path d="M0,-11 C3.5,-9 3.5,-3 0,-1 C-3.5,-3 -3.5,-9 0,-11 Z" transform="rotate(288)"/>
      <circle r="2.2" fill="#c24761" stroke="none"/>
    </g>
    <g fill="#111">
      <polygon points="8,8 14,8 8,14"/>
      <polygon points="92,8 86,8 92,14"/>
      <polygon points="8,92 14,92 8,86"/>
      <polygon points="92,92 86,92 92,86"/>
    </g>
  </g>

  <!-- ========== LEFT (왼쪽): Deco bars + sakura ========== -->
  <g transform="translate(8,123.5) scale(0.5)">
    <rect width="100" height="100" fill="#ffffff"/>
    <rect x="4" y="4" width="92" height="92" fill="none" stroke="#111" stroke-width="0.5"/>
    <g fill="#111">
      <rect x="49.5" y="10" width="1" height="80"/>
      <rect x="43" y="10" width="0.5" height="80" opacity="0.7"/>
      <rect x="56.5" y="10" width="0.5" height="80" opacity="0.7"/>
      <rect x="37" y="10" width="0.3" height="80" opacity="0.5"/>
      <rect x="62.7" y="10" width="0.3" height="80" opacity="0.5"/>
    </g>
    <g transform="translate(50,22)" fill="none" stroke="#111" stroke-width="0.4">
      <path d="M0,-7 C2.2,-5.5 2.2,-2 0,-1 C-2.2,-2 -2.2,-5.5 0,-7 Z"/>
      <path d="M0,-7 C2.2,-5.5 2.2,-2 0,-1 C-2.2,-2 -2.2,-5.5 0,-7 Z" transform="rotate(72)"/>
      <path d="M0,-7 C2.2,-5.5 2.2,-2 0,-1 C-2.2,-2 -2.2,-5.5 0,-7 Z" transform="rotate(144)"/>
      <path d="M0,-7 C2.2,-5.5 2.2,-2 0,-1 C-2.2,-2 -2.2,-5.5 0,-7 Z" transform="rotate(216)"/>
      <path d="M0,-7 C2.2,-5.5 2.2,-2 0,-1 C-2.2,-2 -2.2,-5.5 0,-7 Z" transform="rotate(288)"/>
      <circle r="1.2" fill="#c24761" stroke="none"/>
    </g>
    <g transform="translate(50,50) scale(1.5)" fill="none" stroke="#111" stroke-width="0.35">
      <path d="M0,-7 C2.2,-5.5 2.2,-2 0,-1 C-2.2,-2 -2.2,-5.5 0,-7 Z"/>
      <path d="M0,-7 C2.2,-5.5 2.2,-2 0,-1 C-2.2,-2 -2.2,-5.5 0,-7 Z" transform="rotate(72)"/>
      <path d="M0,-7 C2.2,-5.5 2.2,-2 0,-1 C-2.2,-2 -2.2,-5.5 0,-7 Z" transform="rotate(144)"/>
      <path d="M0,-7 C2.2,-5.5 2.2,-2 0,-1 C-2.2,-2 -2.2,-5.5 0,-7 Z" transform="rotate(216)"/>
      <path d="M0,-7 C2.2,-5.5 2.2,-2 0,-1 C-2.2,-2 -2.2,-5.5 0,-7 Z" transform="rotate(288)"/>
      <circle r="1.2" fill="#c24761" stroke="none"/>
    </g>
    <g transform="translate(50,78)" fill="none" stroke="#111" stroke-width="0.4">
      <path d="M0,-7 C2.2,-5.5 2.2,-2 0,-1 C-2.2,-2 -2.2,-5.5 0,-7 Z"/>
      <path d="M0,-7 C2.2,-5.5 2.2,-2 0,-1 C-2.2,-2 -2.2,-5.5 0,-7 Z" transform="rotate(72)"/>
      <path d="M0,-7 C2.2,-5.5 2.2,-2 0,-1 C-2.2,-2 -2.2,-5.5 0,-7 Z" transform="rotate(144)"/>
      <path d="M0,-7 C2.2,-5.5 2.2,-2 0,-1 C-2.2,-2 -2.2,-5.5 0,-7 Z" transform="rotate(216)"/>
      <path d="M0,-7 C2.2,-5.5 2.2,-2 0,-1 C-2.2,-2 -2.2,-5.5 0,-7 Z" transform="rotate(288)"/>
      <circle r="1.2" fill="#c24761" stroke="none"/>
    </g>
  </g>

  <!-- ========== FRONT (앞면): Role slot ========== -->
  <g transform="translate(58,123.5)">
    <rect width="50" height="50" fill="#ffffff"/>
    <rect x="2" y="2" width="46" height="46" fill="none" stroke="#111" stroke-width="0.5"/>
    <rect x="3" y="3" width="44" height="44" fill="none" stroke="#111" stroke-width="0.2"/>
    <image href="images_web/taisho_roman/roles/werewolf.webp" xlink:href="images_web/taisho_roman/roles/werewolf.webp"
           x="4" y="4" width="42" height="42" preserveAspectRatio="xMidYMid slice"/>
  </g>

  <!-- ========== RIGHT (오른쪽): Mirror-angled sakura ========== -->
  <g transform="translate(108,123.5) scale(0.5)">
    <rect width="100" height="100" fill="#ffffff"/>
    <rect x="4" y="4" width="92" height="92" fill="none" stroke="#111" stroke-width="0.5"/>
    <g fill="#111">
      <rect x="49.5" y="10" width="1" height="80"/>
      <rect x="43" y="10" width="0.5" height="80" opacity="0.7"/>
      <rect x="56.5" y="10" width="0.5" height="80" opacity="0.7"/>
      <rect x="37" y="10" width="0.3" height="80" opacity="0.5"/>
      <rect x="62.7" y="10" width="0.3" height="80" opacity="0.5"/>
    </g>
    <g transform="translate(50,22) rotate(36)" fill="none" stroke="#111" stroke-width="0.4">
      <path d="M0,-7 C2.2,-5.5 2.2,-2 0,-1 C-2.2,-2 -2.2,-5.5 0,-7 Z"/>
      <path d="M0,-7 C2.2,-5.5 2.2,-2 0,-1 C-2.2,-2 -2.2,-5.5 0,-7 Z" transform="rotate(72)"/>
      <path d="M0,-7 C2.2,-5.5 2.2,-2 0,-1 C-2.2,-2 -2.2,-5.5 0,-7 Z" transform="rotate(144)"/>
      <path d="M0,-7 C2.2,-5.5 2.2,-2 0,-1 C-2.2,-2 -2.2,-5.5 0,-7 Z" transform="rotate(216)"/>
      <path d="M0,-7 C2.2,-5.5 2.2,-2 0,-1 C-2.2,-2 -2.2,-5.5 0,-7 Z" transform="rotate(288)"/>
      <circle r="1.2" fill="#c24761" stroke="none"/>
    </g>
    <g transform="translate(50,50) scale(1.5) rotate(-36)" fill="none" stroke="#111" stroke-width="0.35">
      <path d="M0,-7 C2.2,-5.5 2.2,-2 0,-1 C-2.2,-2 -2.2,-5.5 0,-7 Z"/>
      <path d="M0,-7 C2.2,-5.5 2.2,-2 0,-1 C-2.2,-2 -2.2,-5.5 0,-7 Z" transform="rotate(72)"/>
      <path d="M0,-7 C2.2,-5.5 2.2,-2 0,-1 C-2.2,-2 -2.2,-5.5 0,-7 Z" transform="rotate(144)"/>
      <path d="M0,-7 C2.2,-5.5 2.2,-2 0,-1 C-2.2,-2 -2.2,-5.5 0,-7 Z" transform="rotate(216)"/>
      <path d="M0,-7 C2.2,-5.5 2.2,-2 0,-1 C-2.2,-2 -2.2,-5.5 0,-7 Z" transform="rotate(288)"/>
      <circle r="1.2" fill="#c24761" stroke="none"/>
    </g>
    <g transform="translate(50,78) rotate(36)" fill="none" stroke="#111" stroke-width="0.4">
      <path d="M0,-7 C2.2,-5.5 2.2,-2 0,-1 C-2.2,-2 -2.2,-5.5 0,-7 Z"/>
      <path d="M0,-7 C2.2,-5.5 2.2,-2 0,-1 C-2.2,-2 -2.2,-5.5 0,-7 Z" transform="rotate(72)"/>
      <path d="M0,-7 C2.2,-5.5 2.2,-2 0,-1 C-2.2,-2 -2.2,-5.5 0,-7 Z" transform="rotate(144)"/>
      <path d="M0,-7 C2.2,-5.5 2.2,-2 0,-1 C-2.2,-2 -2.2,-5.5 0,-7 Z" transform="rotate(216)"/>
      <path d="M0,-7 C2.2,-5.5 2.2,-2 0,-1 C-2.2,-2 -2.2,-5.5 0,-7 Z" transform="rotate(288)"/>
      <circle r="1.2" fill="#c24761" stroke="none"/>
    </g>
  </g>

  <!-- ========== BACK (뒷면): Large deco sakura medallion ========== -->
  <g transform="translate(158,123.5) scale(0.5)">
    <rect width="100" height="100" fill="#ffffff"/>
    <rect x="4" y="4" width="92" height="92" fill="none" stroke="#111" stroke-width="0.6"/>
    <rect x="6.5" y="6.5" width="87" height="87" fill="none" stroke="#111" stroke-width="0.2"/>
    <g transform="translate(50,50)" fill="none" stroke="#111">
      <circle r="38" stroke-width="0.5"/>
      <circle r="30" stroke-width="0.25"/>
      <g stroke-width="0.4">
        <line x1="0" y1="-30" x2="0" y2="-38"/>
        <line x1="0" y1="-30" x2="0" y2="-38" transform="rotate(30)"/>
        <line x1="0" y1="-30" x2="0" y2="-38" transform="rotate(60)"/>
        <line x1="0" y1="-30" x2="0" y2="-38" transform="rotate(90)"/>
        <line x1="0" y1="-30" x2="0" y2="-38" transform="rotate(120)"/>
        <line x1="0" y1="-30" x2="0" y2="-38" transform="rotate(150)"/>
        <line x1="0" y1="-30" x2="0" y2="-38" transform="rotate(180)"/>
        <line x1="0" y1="-30" x2="0" y2="-38" transform="rotate(210)"/>
        <line x1="0" y1="-30" x2="0" y2="-38" transform="rotate(240)"/>
        <line x1="0" y1="-30" x2="0" y2="-38" transform="rotate(270)"/>
        <line x1="0" y1="-30" x2="0" y2="-38" transform="rotate(300)"/>
        <line x1="0" y1="-30" x2="0" y2="-38" transform="rotate(330)"/>
      </g>
      <g stroke-width="0.5">
        <path d="M0,-24 C7,-20 7,-7 0,-3 C-7,-7 -7,-20 0,-24 Z"/>
        <path d="M0,-24 C7,-20 7,-7 0,-3 C-7,-7 -7,-20 0,-24 Z" transform="rotate(72)"/>
        <path d="M0,-24 C7,-20 7,-7 0,-3 C-7,-7 -7,-20 0,-24 Z" transform="rotate(144)"/>
        <path d="M0,-24 C7,-20 7,-7 0,-3 C-7,-7 -7,-20 0,-24 Z" transform="rotate(216)"/>
        <path d="M0,-24 C7,-20 7,-7 0,-3 C-7,-7 -7,-20 0,-24 Z" transform="rotate(288)"/>
      </g>
      <g stroke-width="0.35">
        <path d="M0,-12 C3,-10 3,-4 0,-2 C-3,-4 -3,-10 0,-12 Z" transform="rotate(36)"/>
        <path d="M0,-12 C3,-10 3,-4 0,-2 C-3,-4 -3,-10 0,-12 Z" transform="rotate(108)"/>
        <path d="M0,-12 C3,-10 3,-4 0,-2 C-3,-4 -3,-10 0,-12 Z" transform="rotate(180)"/>
        <path d="M0,-12 C3,-10 3,-4 0,-2 C-3,-4 -3,-10 0,-12 Z" transform="rotate(252)"/>
        <path d="M0,-12 C3,-10 3,-4 0,-2 C-3,-4 -3,-10 0,-12 Z" transform="rotate(324)"/>
      </g>
    </g>
    <g transform="translate(50,50)">
      <circle r="6" fill="#c24761"/>
      <text x="0" y="2.2" text-anchor="middle" font-family="serif" font-size="7" fill="#fff" font-weight="bold">狼</text>
    </g>
    <text x="50" y="95" text-anchor="middle" font-family="serif" font-size="3.5" fill="#111" letter-spacing="3">大正浪漫 人狼</text>
  </g>

  <!-- ========== BOTTOM (바닥): Pinstripe + deco bar ========== -->
  <g transform="translate(58,173.5) scale(0.5)">
    <rect width="100" height="100" fill="#ffffff"/>
    <rect width="100" height="100" fill="url(#pinC)" opacity="0.55"/>
    <rect x="4" y="4" width="92" height="92" fill="none" stroke="#111" stroke-width="0.5"/>
    <g transform="translate(50,50)">
      <rect x="-28" y="-1.2" width="56" height="2.4" fill="#c24761"/>
      <rect x="-32" y="-0.25" width="64" height="0.5" fill="#111"/>
      <circle r="6" fill="#ffffff" stroke="#111" stroke-width="0.5"/>
      <text x="0" y="2.2" text-anchor="middle" font-family="serif" font-size="7" fill="#111" font-weight="bold">狼</text>
    </g>
  </g>

  <!-- Folds -->
  <g fill="none" stroke="#777" stroke-width="0.3" stroke-dasharray="1.6,1.2">
    <line x1="58"  y1="123.5" x2="58"  y2="173.5"/>
    <line x1="108" y1="123.5" x2="108" y2="173.5"/>
    <line x1="158" y1="123.5" x2="158" y2="173.5"/>
    <line x1="58"  y1="123.5" x2="108" y2="123.5"/>
    <line x1="58"  y1="173.5" x2="108" y2="173.5"/>
    <line x1="58"  y1="73.5"  x2="58"  y2="123.5"/>
    <line x1="108" y1="73.5"  x2="108" y2="123.5"/>
    <line x1="58"  y1="73.5"  x2="108" y2="73.5"/>
    <line x1="58"  y1="173.5" x2="58"  y2="223.5"/>
    <line x1="108" y1="173.5" x2="108" y2="223.5"/>
    <line x1="58"  y1="223.5" x2="108" y2="223.5"/>
    <line x1="8"   y1="123.5" x2="8"   y2="173.5"/>
  </g>

  <!-- CUT outline -->
  <path d="M 65,66.5 L 101,66.5 L 108,73.5 L 115,80.5 L 115,116.5 L 108,123.5 L 208,123.5 L 208,173.5 L 108,173.5 L 115,180.5 L 115,216.5 L 108,223.5 L 101,230.5 L 65,230.5 L 58,223.5 L 51,216.5 L 51,180.5 L 58,173.5 L 8,173.5 L 1,166.5 L 1,130.5 L 8,123.5 L 58,123.5 L 51,116.5 L 51,80.5 L 58,73.5 Z"
    fill="none" stroke="black" stroke-width="0.5" stroke-linecap="round" stroke-linejoin="round"/>

  <!-- Footer -->
  <text x="105" y="252" text-anchor="middle" font-family="serif" font-size="3.5" fill="#111">Set C · 櫻 線畫 — 50×50×50mm · 포인트 컬러 朱色 #c24761</text>
  <g transform="translate(80,262)">
    <line x1="0" y1="0" x2="50" y2="0" stroke="#111" stroke-width="0.4"/>
    <line x1="0" y1="-1.5" x2="0" y2="1.5" stroke="#111" stroke-width="0.4"/>
    <line x1="50" y1="-1.5" x2="50" y2="1.5" stroke="#111" stroke-width="0.4"/>
    <text x="25" y="-2.5" text-anchor="middle" font-family="sans-serif" font-size="2.8" fill="#111">50 mm</text>
  </g>
  <g font-family="sans-serif" font-size="2.8" fill="#555">
    <text x="12" y="275">T=윗면 光環</text>
    <text x="12" y="280">L=왼쪽 縦櫻</text>
    <text x="12" y="285">F=앞면 役割</text>
    <text x="160" y="275">R=오른쪽 縦櫻</text>
    <text x="160" y="280">Bk=뒷면 大櫻</text>
    <text x="160" y="285">Bt=바닥 線帯</text>
  </g>
</svg>
